<svg width="78" height="40" viewBox="0 0 78 40" fill="none" xmlns="http://www.w3.org/2000/svg">
<g id="Favourite">
<path id="Vector" d="M30.25 6C27.9812 6 25.96 6.94428 24.4337 8.42229C22.9487 9.90029 22 11.912 22 14.2111C22 16.4692 22.9487 18.4809 24.4337 20L38.5 34L52.5662 20C54.0513 18.522 55 16.5103 55 14.2111C55 11.9531 54.0513 9.94135 52.5662 8.42229C51.0812 6.94428 49.06 6 46.75 6C44.4813 6 42.46 6.94428 40.9338 8.42229C39.4488 9.90029 38.5 11.912 38.5 14.2111C38.5 11.9531 37.5513 9.94135 36.0663 8.42229C34.5813 6.94428 32.56 6 30.25 6Z" fill="black"/>
</g>
</svg>
